<svg xmlns="http://www.w3.org/2000/svg" viewBox="0 0 199.12 190.47"><defs><style>.cls-1{fill:#df6666;}</style></defs><title>Recurso 3</title><g id="Capa_2" data-name="Capa 2"><g id="Capa_1-2" data-name="Capa 1"><path class="cls-1" d="M192.63,101.73H67.1a6.5,6.5,0,1,1,0-13H192.63a6.5,6.5,0,0,1,0,13Z"/><path class="cls-1" d="M101.73,136.36a6.44,6.44,0,0,1-4.59-1.91L62.51,99.82a6.48,6.48,0,0,1,0-9.18L97.14,56a6.49,6.49,0,0,1,9.18,9.18l-30,30,30,30a6.5,6.5,0,0,1-4.59,11.09Z"/><path class="cls-1" d="M95.23,190.47A95.24,95.24,0,1,1,183.87,60.4a6.49,6.49,0,1,1-12.09,4.75,82.24,82.24,0,1,0,0,60.18,6.49,6.49,0,1,1,12.09,4.75A94.76,94.76,0,0,1,95.23,190.47Z"/></g></g></svg>