<svg xmlns="http://www.w3.org/2000/svg" viewBox="0 0 371 371"><defs><style>.cls-1{fill:#e6e6e6;}.cls-2{fill:#ffa000;}.cls-3{fill:#ffe082;}.cls-4{fill:#df6666;}</style></defs><title>Recurso 1</title><g id="Capa_2" data-name="Capa 2"><g id="Capa_1-2" data-name="Capa 1"><circle class="cls-1" cx="185.5" cy="185.5" r="185.5"/><path class="cls-2" d="M265,253.79,199.26,87.52a5.36,5.36,0,0,0-4.35-3.34L93,72.18a5.3,5.3,0,0,0-6,4.5c0,.07,0,.14,0,.2L65.55,248.52a5.35,5.35,0,0,0,4.62,6l.13,0L258,276h.62a5.37,5.37,0,0,0,5.36-4.86l1.39-14.88A5.36,5.36,0,0,0,265,253.79Z"/><path class="cls-3" d="M289.1,87.47a5.37,5.37,0,0,0-5.31-5.42h0l-46.45-.42L100.13,80.36a5.37,5.37,0,0,0-5.43,5.23L89,257.88a5.38,5.38,0,0,0,4.71,5.5l.61.08,188.93,2.36a5.36,5.36,0,0,0,5.43-5.3v-.07Z"/><path class="cls-4" d="M291.54,76.88a5.35,5.35,0,0,0-6-4.7h0l-46.13,5.43-136.23,16a5.37,5.37,0,0,0-4.74,5.87l16.1,171.63a5.36,5.36,0,0,0,5.36,4.86h.61l187.73-21.45a5.36,5.36,0,0,0,4.71-5.94v-.07Z"/></g></g></svg>