<svg xmlns="http://www.w3.org/2000/svg" viewBox="0 0 245.6 202.3"><defs><style>.cls-1{fill:#ffa000;}.cls-2{fill:#ffe082;}.cls-3{fill:#df6666;}</style></defs><title>Recurso 2</title><g id="Capa_2" data-name="Capa 2"><g id="Capa_1-2" data-name="Capa 1"><path class="cls-1" d="M198,180.27l-65.25-165A5.33,5.33,0,0,0,128.41,12L27.29.05a5.25,5.25,0,0,0-5.93,4.47l0,.19L.05,175a5.32,5.32,0,0,0,4.58,6h.13L191,202.3h.61a5.33,5.33,0,0,0,5.32-4.82l1.39-14.76A5.25,5.25,0,0,0,198,180.27Z"/><path class="cls-2" d="M221.88,15.22a5.33,5.33,0,0,0-5.27-5.38h0l-46.09-.42L34.37,8.17A5.31,5.31,0,0,0,29,13.35l-5.62,171A5.33,5.33,0,0,0,28,189.78l.6.07,187.48,2.35a5.33,5.33,0,0,0,5.39-5.26v-.07Z"/><path class="cls-3" d="M224.31,4.71A5.33,5.33,0,0,0,218.4.05h0L172.58,5.44,37.4,21.34a5.33,5.33,0,0,0-4.7,5.82l16,170.32A5.33,5.33,0,0,0,54,202.3h.61L240.88,181a5.31,5.31,0,0,0,4.68-5.89.15.15,0,0,0,0-.07Z"/></g></g></svg>