<svg xmlns="http://www.w3.org/2000/svg" viewBox="0 0 753.5 220.45"><defs><style>.cls-1{fill:#df6666;}.cls-2{fill:#ffe082;}.cls-3{fill:#fffb44;}.cls-4{fill:#ffa000;}</style></defs><title>Recurso 5</title><g id="Capa_2" data-name="Capa 2"><g id="Capa_1-2" data-name="Capa 1"><path class="cls-1" d="M335.92,148.46l-18.12-72v78q0,6.48-2.89,9.72a10.6,10.6,0,0,1-15.23,0q-2.94-3.19-2.93-9.75V65q0-7.41,3.85-10c2.57-1.72,6-2.58,10.41-2.58h7.1c4.27,0,7.36.38,9.29,1.15a7.77,7.77,0,0,1,4.28,4.17,63.76,63.76,0,0,1,3.16,9.79l16.43,61.92,16.42-61.92a64.66,64.66,0,0,1,3.17-9.79,7.77,7.77,0,0,1,4.28-4.17q2.88-1.15,9.29-1.15h7.09q6.56,0,10.41,2.58t3.86,10v89.45q0,6.48-2.89,9.72a9.87,9.87,0,0,1-7.75,3.24,9.62,9.62,0,0,1-7.48-3.24q-2.94-3.24-2.93-9.72v-78l-18.13,72q-1.77,7-2.89,10.3a14.18,14.18,0,0,1-4.12,6c-2,1.79-4.78,2.7-8.33,2.7a12.21,12.21,0,0,1-11.11-6.17,25.55,25.55,0,0,1-2.42-6C337.14,153.1,336.54,150.83,335.92,148.46Z"/><path class="cls-2" d="M454.53,153.48V117.62l-27.61-42.8a88.94,88.94,0,0,1-5.13-9,13.81,13.81,0,0,1-1.5-5.63,9,9,0,0,1,3-6.79,10.59,10.59,0,0,1,7.52-2.85c3.14,0,5.51.89,7.13,2.66a79.6,79.6,0,0,1,7.29,10.6L466.4,98.11l21.36-34.32q1.94-3.16,3.24-5.32a34,34,0,0,1,2.89-4,11.67,11.67,0,0,1,3.51-2.89,10.12,10.12,0,0,1,4.71-1,10,10,0,0,1,7.21,2.81,8.87,8.87,0,0,1,2.89,6.52,13.57,13.57,0,0,1-1.47,6,76.4,76.4,0,0,1-5,8.33l-28.3,43.42v35.86q0,7-3.24,10.48a11.57,11.57,0,0,1-16.5,0Q454.53,160.58,454.53,153.48Z"/><path class="cls-3" d="M557.86,64.26l44,66.62V63.64q0-6.55,2.82-9.83a9.47,9.47,0,0,1,7.59-3.28,9.78,9.78,0,0,1,7.79,3.28q2.85,3.27,2.86,9.83v88.91q0,14.88-12.34,14.89a16.42,16.42,0,0,1-5.56-.89,14,14,0,0,1-4.62-2.82,26.7,26.7,0,0,1-4-4.51q-1.86-2.58-3.7-5.28l-43-65.86v66.25q0,6.46-3,9.79a10,10,0,0,1-7.72,3.32,9.81,9.81,0,0,1-7.78-3.36q-2.94-3.36-2.93-9.75V67.11a24.81,24.81,0,0,1,1.23-8.72,12.45,12.45,0,0,1,4.86-5.66,13.17,13.17,0,0,1,7.32-2.2,12,12,0,0,1,9.14,3.7,27.18,27.18,0,0,1,3.39,4.4C555.43,60.43,556.63,62.3,557.86,64.26Z"/><path class="cls-4" d="M697.75,50.53q17.58,0,30.19,7.13A46.31,46.31,0,0,1,747,77.94q6.48,13.16,6.48,30.89A75.42,75.42,0,0,1,750,132.66a51.47,51.47,0,0,1-10.64,18.58,46.58,46.58,0,0,1-17.43,12,68.64,68.64,0,0,1-47.42-.11A47.19,47.19,0,0,1,657,151.09a51.58,51.58,0,0,1-10.6-18.74,75.67,75.67,0,0,1-3.59-23.68,73.18,73.18,0,0,1,3.74-23.9,51.39,51.39,0,0,1,10.84-18.51,46.9,46.9,0,0,1,17.27-11.68A62.2,62.2,0,0,1,697.75,50.53Zm32.54,58.14q0-12.4-4-21.51a30,30,0,0,0-11.45-13.77,31.49,31.49,0,0,0-17.08-4.66,31,31,0,0,0-12.69,2.58,27.83,27.83,0,0,0-10,7.52,35.78,35.78,0,0,0-6.64,12.61A56.92,56.92,0,0,0,666,108.67a58.37,58.37,0,0,0,2.43,17.43A35.74,35.74,0,0,0,675.27,139a28.8,28.8,0,0,0,10.18,7.67,32.1,32.1,0,0,0,28.76-1.85q7.37-4.4,11.72-13.57T730.29,108.67Z"/><path class="cls-4" d="M215.74,196.44l-71.1-179.8A5.81,5.81,0,0,0,139.93,13L29.73.06a5.72,5.72,0,0,0-6.46,4.86c0,.07,0,.15,0,.22L.05,190.73a5.79,5.79,0,0,0,5,6.5l.14,0,203,23.2h.66a5.81,5.81,0,0,0,5.8-5.26l1.51-16.09A5.75,5.75,0,0,0,215.74,196.44Z"/><path class="cls-2" d="M241.79,16.58A5.8,5.8,0,0,0,236,10.73h0l-50.22-.46L37.45,8.9a5.8,5.8,0,0,0-5.87,5.65L25.46,200.86a5.79,5.79,0,0,0,5.09,5.94l.66.08,204.29,2.56a5.8,5.8,0,0,0,5.87-5.73v-.07Z"/><path class="cls-1" d="M244.43,5.14A5.82,5.82,0,0,0,238,.05h-.05L188.06,5.93,40.75,23.26a5.8,5.8,0,0,0-5.12,6.34L53,215.19a5.81,5.81,0,0,0,5.8,5.26h.66l203-23.2a5.81,5.81,0,0,0,5.1-6.43.15.15,0,0,1,0-.07Z"/></g></g></svg>